<mxfile host="app.diagrams.net" modified="2023-10-31T15:01:44.559Z" agent="Mozilla/5.0 (Windows NT 10.0; Win64; x64) AppleWebKit/537.36 (KHTML, like Gecko) Chrome/118.0.0.0 Safari/537.36 Edg/118.0.2088.76" etag="fA0t68utMASDorxpyP_p" version="22.0.8" type="device">
  <diagram name="Seite-1" id="RIMdOpr2lOWzrgXlLLmI">
    <mxGraphModel dx="792" dy="429" grid="1" gridSize="10" guides="1" tooltips="1" connect="1" arrows="1" fold="1" page="1" pageScale="1" pageWidth="827" pageHeight="1169" background="none" math="0" shadow="0">
      <root>
        <mxCell id="0" />
        <mxCell id="1" parent="0" />
        <mxCell id="8ycK_79fRJv6SBO_BKyE-65" style="edgeStyle=orthogonalEdgeStyle;rounded=0;orthogonalLoop=1;jettySize=auto;html=1;exitX=1;exitY=0.5;exitDx=0;exitDy=0;entryX=0;entryY=0.5;entryDx=0;entryDy=0;" edge="1" parent="1" source="8ycK_79fRJv6SBO_BKyE-1" target="8ycK_79fRJv6SBO_BKyE-63">
          <mxGeometry relative="1" as="geometry" />
        </mxCell>
        <mxCell id="8ycK_79fRJv6SBO_BKyE-1" value="" style="ellipse;whiteSpace=wrap;html=1;aspect=fixed;fillColor=#000000;" vertex="1" parent="1">
          <mxGeometry x="50" y="50" width="20" height="20" as="geometry" />
        </mxCell>
        <mxCell id="8ycK_79fRJv6SBO_BKyE-74" style="edgeStyle=orthogonalEdgeStyle;rounded=0;orthogonalLoop=1;jettySize=auto;html=1;exitX=1;exitY=0.5;exitDx=0;exitDy=0;entryX=0;entryY=0.5;entryDx=0;entryDy=0;" edge="1" parent="1" source="8ycK_79fRJv6SBO_BKyE-3" target="8ycK_79fRJv6SBO_BKyE-5">
          <mxGeometry relative="1" as="geometry" />
        </mxCell>
        <mxCell id="8ycK_79fRJv6SBO_BKyE-3" value="Klassen der API importieren" style="rounded=1;whiteSpace=wrap;html=1;" vertex="1" parent="1">
          <mxGeometry x="160" y="40" width="120" height="40" as="geometry" />
        </mxCell>
        <mxCell id="8ycK_79fRJv6SBO_BKyE-79" style="edgeStyle=orthogonalEdgeStyle;rounded=0;orthogonalLoop=1;jettySize=auto;html=1;exitX=1;exitY=0.5;exitDx=0;exitDy=0;entryX=0;entryY=0.5;entryDx=0;entryDy=0;" edge="1" parent="1" source="8ycK_79fRJv6SBO_BKyE-5" target="8ycK_79fRJv6SBO_BKyE-76">
          <mxGeometry relative="1" as="geometry" />
        </mxCell>
        <mxCell id="8ycK_79fRJv6SBO_BKyE-5" value="Klasseninstanz erstellen, um auf Objekt zuzugreifen" style="rounded=1;whiteSpace=wrap;html=1;" vertex="1" parent="1">
          <mxGeometry x="320" y="40" width="120" height="40" as="geometry" />
        </mxCell>
        <mxCell id="8ycK_79fRJv6SBO_BKyE-39" value="" style="ellipse;whiteSpace=wrap;html=1;aspect=fixed;" vertex="1" parent="1">
          <mxGeometry x="190" y="170" width="20" height="20" as="geometry" />
        </mxCell>
        <mxCell id="8ycK_79fRJv6SBO_BKyE-40" value="" style="ellipse;whiteSpace=wrap;html=1;aspect=fixed;fillColor=#000000;" vertex="1" parent="1">
          <mxGeometry x="195" y="175" width="10" height="10" as="geometry" />
        </mxCell>
        <mxCell id="8ycK_79fRJv6SBO_BKyE-64" style="edgeStyle=orthogonalEdgeStyle;rounded=0;orthogonalLoop=1;jettySize=auto;html=1;exitX=1;exitY=0.5;exitDx=0;exitDy=0;entryX=0;entryY=0.5;entryDx=0;entryDy=0;" edge="1" parent="1" source="8ycK_79fRJv6SBO_BKyE-63" target="8ycK_79fRJv6SBO_BKyE-3">
          <mxGeometry relative="1" as="geometry" />
        </mxCell>
        <mxCell id="8ycK_79fRJv6SBO_BKyE-63" value="" style="rhombus;whiteSpace=wrap;html=1;" vertex="1" parent="1">
          <mxGeometry x="90" y="50" width="20" height="20" as="geometry" />
        </mxCell>
        <mxCell id="8ycK_79fRJv6SBO_BKyE-67" value="&lt;font style=&quot;font-size: 8px;&quot;&gt;[Objekt existiert]&lt;/font&gt;" style="text;html=1;strokeColor=none;fillColor=none;align=center;verticalAlign=middle;whiteSpace=wrap;rounded=0;" vertex="1" parent="1">
          <mxGeometry x="470" y="60" width="60" height="10" as="geometry" />
        </mxCell>
        <mxCell id="8ycK_79fRJv6SBO_BKyE-82" style="edgeStyle=orthogonalEdgeStyle;rounded=0;orthogonalLoop=1;jettySize=auto;html=1;exitX=0.5;exitY=1;exitDx=0;exitDy=0;entryX=0.5;entryY=0;entryDx=0;entryDy=0;" edge="1" parent="1" source="8ycK_79fRJv6SBO_BKyE-73" target="8ycK_79fRJv6SBO_BKyE-81">
          <mxGeometry relative="1" as="geometry" />
        </mxCell>
        <mxCell id="8ycK_79fRJv6SBO_BKyE-73" value="Objektattribute bearbeiten" style="rounded=1;whiteSpace=wrap;html=1;" vertex="1" parent="1">
          <mxGeometry x="540" y="40" width="120" height="40" as="geometry" />
        </mxCell>
        <mxCell id="8ycK_79fRJv6SBO_BKyE-78" style="edgeStyle=orthogonalEdgeStyle;rounded=0;orthogonalLoop=1;jettySize=auto;html=1;exitX=1;exitY=0.5;exitDx=0;exitDy=0;entryX=0;entryY=0.5;entryDx=0;entryDy=0;" edge="1" parent="1" source="8ycK_79fRJv6SBO_BKyE-76" target="8ycK_79fRJv6SBO_BKyE-73">
          <mxGeometry relative="1" as="geometry" />
        </mxCell>
        <mxCell id="8ycK_79fRJv6SBO_BKyE-86" style="edgeStyle=orthogonalEdgeStyle;rounded=0;orthogonalLoop=1;jettySize=auto;html=1;exitX=0.5;exitY=1;exitDx=0;exitDy=0;entryX=0.5;entryY=0;entryDx=0;entryDy=0;" edge="1" parent="1" source="8ycK_79fRJv6SBO_BKyE-76" target="8ycK_79fRJv6SBO_BKyE-85">
          <mxGeometry relative="1" as="geometry" />
        </mxCell>
        <mxCell id="8ycK_79fRJv6SBO_BKyE-76" value="" style="rhombus;whiteSpace=wrap;html=1;" vertex="1" parent="1">
          <mxGeometry x="450" y="50" width="20" height="20" as="geometry" />
        </mxCell>
        <mxCell id="8ycK_79fRJv6SBO_BKyE-84" style="edgeStyle=orthogonalEdgeStyle;rounded=0;orthogonalLoop=1;jettySize=auto;html=1;exitX=0.5;exitY=1;exitDx=0;exitDy=0;entryX=0.5;entryY=0;entryDx=0;entryDy=0;" edge="1" parent="1" source="8ycK_79fRJv6SBO_BKyE-81" target="8ycK_79fRJv6SBO_BKyE-83">
          <mxGeometry relative="1" as="geometry" />
        </mxCell>
        <mxCell id="8ycK_79fRJv6SBO_BKyE-81" value="Videospiel exportieren" style="rounded=1;whiteSpace=wrap;html=1;" vertex="1" parent="1">
          <mxGeometry x="540" y="120" width="120" height="40" as="geometry" />
        </mxCell>
        <mxCell id="8ycK_79fRJv6SBO_BKyE-88" style="edgeStyle=orthogonalEdgeStyle;rounded=0;orthogonalLoop=1;jettySize=auto;html=1;exitX=0;exitY=0.5;exitDx=0;exitDy=0;entryX=1;entryY=0.5;entryDx=0;entryDy=0;" edge="1" parent="1" source="8ycK_79fRJv6SBO_BKyE-83" target="8ycK_79fRJv6SBO_BKyE-85">
          <mxGeometry relative="1" as="geometry" />
        </mxCell>
        <mxCell id="8ycK_79fRJv6SBO_BKyE-98" style="edgeStyle=orthogonalEdgeStyle;rounded=0;orthogonalLoop=1;jettySize=auto;html=1;exitX=0.5;exitY=1;exitDx=0;exitDy=0;entryX=1;entryY=0.5;entryDx=0;entryDy=0;" edge="1" parent="1" source="8ycK_79fRJv6SBO_BKyE-83" target="8ycK_79fRJv6SBO_BKyE-95">
          <mxGeometry relative="1" as="geometry" />
        </mxCell>
        <mxCell id="8ycK_79fRJv6SBO_BKyE-83" value="" style="rhombus;whiteSpace=wrap;html=1;" vertex="1" parent="1">
          <mxGeometry x="590" y="170" width="20" height="20" as="geometry" />
        </mxCell>
        <mxCell id="8ycK_79fRJv6SBO_BKyE-92" style="edgeStyle=orthogonalEdgeStyle;rounded=0;orthogonalLoop=1;jettySize=auto;html=1;exitX=0;exitY=0.5;exitDx=0;exitDy=0;entryX=1;entryY=0.5;entryDx=0;entryDy=0;" edge="1" parent="1" source="8ycK_79fRJv6SBO_BKyE-85" target="8ycK_79fRJv6SBO_BKyE-90">
          <mxGeometry relative="1" as="geometry" />
        </mxCell>
        <mxCell id="8ycK_79fRJv6SBO_BKyE-85" value="" style="rhombus;whiteSpace=wrap;html=1;" vertex="1" parent="1">
          <mxGeometry x="450" y="170" width="20" height="20" as="geometry" />
        </mxCell>
        <mxCell id="8ycK_79fRJv6SBO_BKyE-87" value="&lt;font style=&quot;font-size: 8px;&quot;&gt;[Objekt existiert nicht]&lt;/font&gt;" style="text;html=1;strokeColor=none;fillColor=none;align=center;verticalAlign=middle;whiteSpace=wrap;rounded=0;" vertex="1" parent="1">
          <mxGeometry x="457.5" y="100" width="85" height="10" as="geometry" />
        </mxCell>
        <mxCell id="8ycK_79fRJv6SBO_BKyE-89" value="&lt;span style=&quot;font-size: 8px;&quot;&gt;[Fehler tritt auf]&lt;/span&gt;" style="text;html=1;strokeColor=none;fillColor=none;align=center;verticalAlign=middle;whiteSpace=wrap;rounded=0;" vertex="1" parent="1">
          <mxGeometry x="525" y="170" width="60" height="10" as="geometry" />
        </mxCell>
        <mxCell id="8ycK_79fRJv6SBO_BKyE-94" style="edgeStyle=orthogonalEdgeStyle;rounded=0;orthogonalLoop=1;jettySize=auto;html=1;exitX=0;exitY=0.5;exitDx=0;exitDy=0;entryX=1;entryY=0.5;entryDx=0;entryDy=0;" edge="1" parent="1" source="8ycK_79fRJv6SBO_BKyE-90" target="8ycK_79fRJv6SBO_BKyE-93">
          <mxGeometry relative="1" as="geometry" />
        </mxCell>
        <mxCell id="8ycK_79fRJv6SBO_BKyE-90" value="Fehlermeldung ausgeben" style="rounded=1;whiteSpace=wrap;html=1;" vertex="1" parent="1">
          <mxGeometry x="280" y="160" width="120" height="40" as="geometry" />
        </mxCell>
        <mxCell id="8ycK_79fRJv6SBO_BKyE-97" style="edgeStyle=orthogonalEdgeStyle;rounded=0;orthogonalLoop=1;jettySize=auto;html=1;exitX=0;exitY=0.5;exitDx=0;exitDy=0;entryX=1;entryY=0.5;entryDx=0;entryDy=0;" edge="1" parent="1" source="8ycK_79fRJv6SBO_BKyE-93" target="8ycK_79fRJv6SBO_BKyE-39">
          <mxGeometry relative="1" as="geometry" />
        </mxCell>
        <mxCell id="8ycK_79fRJv6SBO_BKyE-93" value="" style="rhombus;whiteSpace=wrap;html=1;" vertex="1" parent="1">
          <mxGeometry x="230" y="170" width="20" height="20" as="geometry" />
        </mxCell>
        <mxCell id="8ycK_79fRJv6SBO_BKyE-96" style="edgeStyle=orthogonalEdgeStyle;rounded=0;orthogonalLoop=1;jettySize=auto;html=1;exitX=0;exitY=0.5;exitDx=0;exitDy=0;entryX=0.5;entryY=1;entryDx=0;entryDy=0;" edge="1" parent="1" source="8ycK_79fRJv6SBO_BKyE-95" target="8ycK_79fRJv6SBO_BKyE-93">
          <mxGeometry relative="1" as="geometry" />
        </mxCell>
        <mxCell id="8ycK_79fRJv6SBO_BKyE-95" value="Videospiel testen" style="rounded=1;whiteSpace=wrap;html=1;" vertex="1" parent="1">
          <mxGeometry x="280" y="220" width="120" height="40" as="geometry" />
        </mxCell>
        <mxCell id="8ycK_79fRJv6SBO_BKyE-99" value="&lt;span style=&quot;font-size: 8px;&quot;&gt;[Export erfolgreich]&lt;/span&gt;" style="text;html=1;strokeColor=none;fillColor=none;align=center;verticalAlign=middle;whiteSpace=wrap;rounded=0;" vertex="1" parent="1">
          <mxGeometry x="525" y="220" width="80" height="10" as="geometry" />
        </mxCell>
      </root>
    </mxGraphModel>
  </diagram>
</mxfile>
